<svg viewBox="0 0 874.56 388.03" xmlns="http://www.w3.org/2000/svg"><g fill="#fff" transform="translate(-143.85 -643.49)"><path d="m1010 915.21c-.13-2.87-1.47-4.21-6.63-3.67-7.72.82-16 2.09-24.93 2.58-15.87.87-31.41-1.6-46.32-4.66 6.72-2.55 18.29-4.65 25.09-8.21 9-4.7 9.39-15.89 4-25.84-4.14-7.7 7.38-13.61 3.65-21.31-5.61-11.59-13.5-11.68-22.46-2.45-10.93 11.26-36.43 43-56.3 52.28-.89.42-21.29 4.16-30.57 4.5-12.39.45-24.82.11-37.87.11 4.77-9.77 9.43-19.62 14.42-29.29 1.14-2.21 3.3-4 5.27-5.67 9.93-8.3 20.28-16.13 29.79-24.87 4.54-4.16 8.13-9.68 11.07-15.16a10.07 10.07 0 0 0 -2.38-12.77c-3.93-3.46-8.44-2.89-12.53-.53a46.71 46.71 0 0 0 -9.09 6.93c-11.12 10.77-18.75 24-26.17 37.42-1.36 2.45-3.49 5.09-5.92 6.23-11.36 5.29-22.84 10.37-34.5 15-6.8 2.69-14 4.32-21.53 6.57a32.48 32.48 0 0 1 0-4.85c3.28-17.57 6.21-35.23 10.09-52.68 2.49-11.19 4.24-22.54 10.67-32.78 21.71-34.6 41.58-70.24 58-107.68a102.43 102.43 0 0 0 5.92-18.78c1-4.32-1.54-7.88-5.67-9.46a9 9 0 0 0 -11.13 3.25 197.35 197.35 0 0 0 -11.82 17.79c-15.91 28.13-26.48 58.46-36.38 89.07-5.36 16.59-7.78 34.4-19.53 48.45a57.43 57.43 0 0 0 -3.28 5c-24.94 36.8-49.79 73.68-84.16 102.76-7.8 6.61-15.57 13.34-27.19 14.24.41-2.27.43-4.28 1.15-6 3.3-7.93 6.67-15.82 10.25-23.62 2.83-6.16 6.31-12 9-18.25 3.66-8.55-2.81-17.4-11.25-16.1-4.26.65-8.61.69-12.91 1.07-3.91.35-6.76-.23-8.6-4.63s-6.09-5.93-10.86-5.35a10.32 10.32 0 0 0 -9 7.54c-1.28 4-.84 8.32 2.78 10.9s3.16 5.12 2 8.5c-8.63 25.56-18.74 50.28-38 70.14a8.72 8.72 0 0 0 1.11 12.88c3.89 3.08 9.57 2.71 12.5-1.31a96 96 0 0 0 9.06-14.21c5-10.25 9.46-20.76 14-31.21 5.67-13 11.23-26 16.62-38.5h16.95c-2.22 5-4.08 9-5.8 13.07-4.44 10.5-9.46 20.81-13 31.59-4 12 1.78 20.25 12.33 18.3 5.86-1.08 12.38-3 16.79-6.68 11.84-9.93 24-20 33.67-31.88 20.49-25.32 39.5-51.83 59-78 4.24-5.68 7.92-11.78 12.15-18.12-4 21.88-7.82 43-11.89 64.16-.28 1.45-2.29 3.25-3.83 3.65-8.62 2.26-17.39 3.94-26 6.24a9.14 9.14 0 0 0 -7 10.61c.66 4.69 3.94 7.11 9.66 7.36 7.76.33 15.53.78 22.43 1.14-.66 19.92-1.76 39.52-1.76 59.12a86.58 86.58 0 0 0 3.87 23.88c2.58 8.91 11.14 11.51 17.94 5.29 4.31-4 7.59-9.63 9.83-15.15 9.3-23 18.15-46.15 26.85-69.37 1.45-3.87 3.39-4.86 7.23-4.9 23-.24 46-.69 69-1.15 5.58-.11 11.22-1.17 16.71-.6 10.51 1.08 20.89 3.51 31.4 4.51 22.48 2.12 44.83-.12 67.13-2.91 4.68-.57 7.02-.48 6.88-3.53zm-148.28-78.45s-5.38 14.16-18.46 20.57c0 0 8.93-15.59 18.46-20.57zm-29.18-143.48c-9.17 31.82-24.54 60.77-41.15 89.16 8.75-32.01 22.01-61.94 41.15-89.16zm-63 302.57-2.54-.18c-1.66-8-4.37-15.86-4.76-23.88-.75-15.73-.12-31.52-.27-47.29 0-3.94 1.35-5 5.25-5 11.94.25 23.89.09 36.92.09-11.55 26-18.95 53.03-34.63 76.26zm38.78-87.64c-.34.75-1.86 1.36-2.84 1.37-13.76.09-27.53.06-41.29.06-.35-.71-.7-1.43-1-2.14 1.2-1.46 2.11-3.68 3.64-4.26 16.66-6.29 33.4-12.31 50.13-18.39.24-.08.6.15 1.5.39-3.46 7.76-6.7 15.39-10.17 22.97zm104.06-8c10-7.93 28.77-28 39-36.13 3.09 4.62-.84 7.13-1.46 11.21-.69 4.52 5.54 10.52 1.1 13.58-1.74 1.2-7.65 3.31-9.64 4-5.25 1.83-10.58 3.41-16 5.14-4.76 1.16-9.92 2.24-13.03 2.19z"/><path d="m564.84 660.21c1.63-2.68 3-5.82-.73-7.72-3.44-1.75-5 1-6.32 3.72q-3.13 6.46-6.49 12.85c-27 51.14-59.1 99-93.42 145.42-30.83 41.71-63.39 81.94-102.45 116.43-11.75 10.38-24 20.11-39.1 25.16-14.22 4.76-22.94 2-28.56-12.47-3-7.82-5-16.06-8-23.9-4.79-12.45-16-15.64-25.6-6.38-10 9.69-18.92 20.51-27.82 31.25-16.15 19.48-31.48 39.68-50.35 56.71-4.1 3.7-9 6.51-13.53 9.72l-2.46-1.25c.49-6-.07-12.31 1.66-17.93 5.66-18.48 11.29-37.05 18.49-55 15.17-37.74 32.1-74.7 56.21-107.79 4.51-6.18 10.38-11.42 15.88-16.83 2.86-2.83 4.53-5.84 3.44-9.77a8.44 8.44 0 0 0 -8.39-6.62c-4.32-.14-7.14 2.22-8.89 6.07-2.73 6-5.14 12.2-8.36 17.93a1166.62 1166.62 0 0 0 -59.62 123.6c-8.92 21.51-18.58 42.84-21.75 66.28-.73 5.44.64 9.94 5.14 13.1s9.31 2.17 13.42-.93c4.5-3.39 9.14-6.82 12.85-11 16.1-18.2 31.73-36.83 47.84-55a375.7 375.7 0 0 1 26.93-28.06c8.59-7.87 11.4-6.7 15.65 4.22 2.58 6.62 4.81 13.37 7.61 19.89 6.23 14.48 19 21.41 32.88 16.54a91.11 91.11 0 0 0 24.47-12.93c32.23-24.35 59.19-54.11 84.84-85.07 37.6-45.45 71.69-93.45 103.37-143.14 14.12-22.11 27.49-44.7 41.16-67.1z"/><path d="m608.61 868.42c-.91-4.35-3.4-7.55-6.66-7.57a14.66 14.66 0 0 0 -6.45 1.83c-16.63 8.55-33.15 17.29-49.81 25.77-1.62.83-4.46 1.16-5.83.29-12.19-7.71-18.12-7.59-26.64 4a196.31 196.31 0 0 0 -20.24 34c-7.11 15.57-12.56 31.92-18.29 48.09-1.79 5.08 1 10.92 5.05 13.55 4.36 2.82 9.47 2.4 14.28-1.47a45.88 45.88 0 0 0 6.05-5.94 208.72 208.72 0 0 0 35.8-60.5c2.24-5.76 2.09-12.86 9-16 .39-.18.51-.86.87-1.2 1.84-1.71 3.46-3.95 5.64-5 16.53-8 33.24-15.63 49.75-23.67 2.87-1.34 5.01-4.07 7.48-6.18zm-120.06 105a159.55 159.55 0 0 1 27.73-65.3c1.73.59 3.06 1.18 4.44 1.49s2.83.35 5 .59c-6.37 25.08-18.04 46.3-37.17 63.25z"/></g></svg>