<svg viewBox="0 0 842.67 442.71" xmlns="http://www.w3.org/2000/svg"><g fill="#fff" transform="translate(-166.06 -629.98)"><path d="m1005.59 875.1a4.3 4.3 0 0 0 -2.56-1.77c-1.09-.26-1.94-.43-2.75-.55a3.21 3.21 0 0 0 -2 .61 5.34 5.34 0 0 1 -.66.35q-8.15 3-16.28 6.12l-3.16 1.14c-19.43 7.31-39.53 14.87-59.38 22.13a58.36 58.36 0 0 1 -14.88 3 85.7 85.7 0 0 1 -9.09.14 84.46 84.46 0 0 0 -9.8.2 102.9 102.9 0 0 0 -16.85 3.19 7.7 7.7 0 0 0 -5.35 4.8 6.59 6.59 0 0 0 1.27 6.44c1.87 2.26 4.88 3.32 8.47 3a20 20 0 0 0 4.25-1c.52-.17 1-.34 1.56-.48l12.91-3.68 5-1.41a300 300 0 0 0 -43.6 59.57 5.6 5.6 0 0 1 -1.73 2.06c-14.42 9.39-28.83 18.08-46.51 21.39s-30.35-1.68-38.81-15.23c-6-9.56-8.52-20.16-10.44-29.34-1.58-7.58 1.15-13.28 4.34-18.32 2.22-3.5 4.27-7.14 6.25-10.66 1.68-3 3.41-6 5.23-9a14.35 14.35 0 0 1 4.84-5.17c14.88-8.39 27.27-15.15 39-21.26a110 110 0 0 1 10.67-4.61c2-.76 4-1.55 6-2.4a6.26 6.26 0 0 0 3.78-3.55 4.93 4.93 0 0 0 -.76-4.3 6.37 6.37 0 0 0 -3.73-2.9 7.62 7.62 0 0 0 -5.34.69l-.61.29c-.53.25-1.06.5-1.58.78l-12.29 6.63-28.58 15.43a4.37 4.37 0 0 1 -.67.28c.11-.23.21-.44.32-.65 16.74-32.17 29.06-61.65 37.66-90.1 3.82-12.64 7.14-26.32 5.53-40.66-.55-4.91-2.28-11.77-10.87-14.62-7.24-2.4-11.46 1.05-15.85 5.46a102.13 102.13 0 0 0 -20.08 28.86 342.46 342.46 0 0 0 -32.18 132 5.87 5.87 0 0 1 -1.74 4c-2.32 2-4.75 3.83-7.1 5.66-3.29 2.54-6.69 5.18-9.79 8-1.92 1.76-3.53 5.36-2.77 8.1.65 2.35 4.21 4.81 7 5.56 3.61 1 6.77-.6 8.93-4.41a74.87 74.87 0 0 1 4.29-6.48c.2-.3.42-.59.62-.9 1.1 5.7 1.48 10.86-2.28 15.73s-6.94 9.84-10.12 14.77c-2.09 3.24-4.24 6.59-6.49 9.8l-2.37 3.4c-10 14.33-20.3 29.14-33.44 41.74-1.43 1.37-2.5 1.68-5 1.47a13 13 0 0 0 -8.71 3 38.77 38.77 0 0 0 -5.22 6.13c-.87 1.18-1.85 2.51-2.88 3.71-2.23 2.59-3.16 5-2.76 7.23a7.07 7.07 0 0 0 3.35 4.55 9 9 0 0 0 5.07 1.48 10.77 10.77 0 0 0 8.09-3.71l1.17-1.36c1.28-1.47 2.6-3 3.78-4.61l1.93-2.64c14.67-20.14 31.31-43 47.28-65.08 2.8-3.88 5.32-7.76 7.77-11.53.64-1 1.28-2 1.88-2.92.76 2.46 1.49 5 2.22 7.45a187.2 187.2 0 0 0 7.23 21.45c7.74 18 24.32 26.4 45.5 23 12.58-2 23.33-7 33.07-12.1 2.67-1.4 5.29-2.84 8.12-4.41.69-.38 1.4-.77 2.11-1.18l-.42 1.8c-.57 2.49-1.11 4.84-1.48 7.18a11.67 11.67 0 0 0 3.62 11c3.09 2.72 7.59 3.86 12.66 3.2 6.76-.88 13-3.4 20.23-8.17 17.31-11.4 31-23.57 41.75-37.18 6.27-7.91 12.72-16.4 16.64-25.58 3.42-8 3.91-15.08 1.44-21.07s-7.58-10.47-15.34-13.63a4.48 4.48 0 0 1 -1.4-1.22l69-24c1.15-.4 2.31-.78 3.53-1.17a63.36 63.36 0 0 0 8.76-3.32 4.29 4.29 0 0 0 1.99-2.74 3.29 3.29 0 0 0 -.41-2.9zm-134.59 88c10.08-16.9 21.47-30.24 34.72-40.65-8.49 16.86-22.07 29.95-34.72 40.65zm-5.82 15.57c25.46-19.28 43.22-37.67 55.82-57.76a1.36 1.36 0 0 1 .23-.17c7.85 4 10 9.42 7.64 19.21-1.87 7.78-6.6 15.28-11 21.59-10.19 14.64-23.84 27.32-40.59 37.68-6.55 4.06-12.11 5.91-18 6-1.82 0-3-.23-3.65-.83a3.49 3.49 0 0 1 -.83-2.82c.26-8.03 1.7-16.36 10.34-22.9zm-54.3-215.85c1.17.4 2 1.67 2.54 3.67 1.92 7.72 2.68 14.2 2.32 19.82-1.49 23.23-9.7 43.94-20.28 68.6-3.87 9-8.3 18-12.58 26.76l-.07.15c-2.61 5.31-5.31 10.8-7.85 16.25a20.54 20.54 0 0 1 -8.74 9.36c-3.33 1.94-6.42 4-10 6.47l-3.48 2.35c2-36.8 8.77-70 20.72-101.34 5.79-15.2 12.51-31.13 25.31-44.29a49.2 49.2 0 0 1 7.06-6.3 7.67 7.67 0 0 1 4.11-1.65 2.91 2.91 0 0 1 .94.15zm-50.11 161-6.13 10.66-1 1.74c-1.35-4.91.68-8.45 7.13-12.43z"/><path d="m424.23 807c16.34-20.36 30.14-39.18 33.45-63.44.88-6.41-3.05-12.85-9.55-15.66-7.38-3.19-14.21-1.34-20.82.44-12.37 3.34-23.83 9.16-36.05 18.34-1.77 1.32-5.92 4.43-3.66 8.57a13.41 13.41 0 0 0 7.27 5.73c3.42 1 6.41-.47 8.89-4.38 6.71-10.56 18-16.71 34.47-18.82 3-.38 5.24 0 6.7 1.13s2.34 3.41 2.32 6.55c-.06 10.47-3.27 21.12-9.81 32.55-11.76 20.57-28.44 38.72-44.44 55.55-35.2 36.89-78 69-130.89 98.1-5.78 3.18-11.83 6.2-17.73 9.14q-3.75 1.86-7.48 3.75a8.3 8.3 0 0 1 .39-.91c32-62.07 70.82-135.27 116.2-207.45 12.38-19.7 25.87-39.26 38.93-58.18l2.26-3.27c4.52-6.57 10-12.56 15.65-18.63a39.56 39.56 0 0 1 6.8-5.35c1-.67 2-1.34 3-2 4.31-3.13 5.43-6.34 3.33-9.55a12.79 12.79 0 0 0 -7.43-5c-2.76-.54-6.58 0-9.09 5.67l-.13.3c-.25.57-.5 1.13-.77 1.69-.7 1.45-1.36 3-1.95 4.3a65 65 0 0 1 -4.54 9c-7.32 11.33-14.79 22.68-22 33.67-12.87 19.54-26.18 39.74-38.63 59.94-42 68.06-78.51 137.22-108.74 195.9-.12.22-.23.46-.38.77-.51 1-1.14 2.35-1.93 2.68-4.29 1.79-8.8 3.4-13.25 5l-4.1 1.47-.07-.11c2.5-2.53 3.59-4.74 3.33-6.74a5.47 5.47 0 0 0 -2.78-3.75c-3.08-2.11-6.42-1.63-9.14 1.32a65.31 65.31 0 0 0 -4.76 5.6c-3.47 4.67-3.69 9.38-.6 12.59s8.39 3.76 14.06 1.35c3.26-1.39 6.44-2.94 9.81-4.59l.47-.23 1.92-.93-.48 1-10.59 21.75c-8.17 16.77-17.43 35.78-26.27 54-3.24 6.7-6.4 13.62-9.39 20.58a3.52 3.52 0 0 0 .08 2.42 2.37 2.37 0 0 0 1.63 1.55 2.59 2.59 0 0 0 .78.12 2.51 2.51 0 0 0 1.51-.5c.46-.35.91-.71 1.33-1.09a2.13 2.13 0 0 0 .62-1.23 1.32 1.32 0 0 1 .09-.28q6-12.65 12.14-25.27l.07-.15c10-20.74 20.34-42.18 30-63.46 4.27-9.37 10.9-15.9 22.18-21.82 76.32-40.07 134.46-85.73 177.77-139.73z"/><path d="m417.11 970.79c12.48-22.3 25.39-45.35 38.39-67.88 21.58-37.38 47.12-81.38 73-124.28 7.35-12.19 14.94-24.79 28.16-33.38a6.52 6.52 0 0 0 3.08-4.57 6 6 0 0 0 -1.58-4.72c-1.78-2-5.79-4.49-8.26-3.93a13.32 13.32 0 0 0 -7.84 5.91 102.65 102.65 0 0 0 -4.65 9.49c-1.36 3-2.77 6.19-4.45 9.12-11.78 20.56-23.76 41.25-35.35 61.26q-10.33 17.82-20.64 35.67-12.72 22-25.39 44.09l-.07.13c-18.51 32.19-37.71 65.48-56.86 98.3-.62 1-1.23 2.1-1.83 3.16l-.15.26c-5 8.67-10.15 17.65-18.7 24.32-1.82 1.42-2.09 5.53-1 7.56s4.6 4 7.22 4 5.28-1.9 6.83-3.67a13.53 13.53 0 0 0 2.15-3.94 14.12 14.12 0 0 1 1.53-3.06c8.62-11.81 19.89-22.78 36.52-35.57 11.37-8.75 24-17.54 39.2-22.62 5.69-1.9 8.57-2.29 10.28-1.37 2 1 2.89 4.2 3.72 8.95 1.76 10 7.31 15 17.47 15.76 8.24.58 16.63-.07 24.74-.7l2.49-.2a7.94 7.94 0 0 0 5.88-2.8 5.8 5.8 0 0 0 .84-5.43c-1.21-3.77-5.08-5.28-10.64-4.13l-1.79.37a81 81 0 0 1 -14.41 2.11c-7.52.19-9.37-1.22-10.9-8.38-.33-1.56-.78-3.62-1.28-5.7a15.56 15.56 0 0 0 -20.73-11.41c-10.48 3.55-18.67 7.39-25.05 11.75-12.19 8.33-24.14 17.3-35.69 26-3.25 2.45-6.59 5-9.93 7.44q7.81-13.87 15.58-27.77z"/><path d="m701 933c1.76-.62 3.59-1.25 5.35-2a6.08 6.08 0 0 0 3.72-3.35 4.67 4.67 0 0 0 -.67-4.07c-1.78-2.87-4.76-3.64-8.19-2.09-.46.21-.91.43-1.39.67s-1.05.52-1.59.75q-28.57 12.18-57.22 24.35l-5.84 2.48a33 33 0 0 0 -15.92-8.56c-6.9-1.62-13.43-1-18.39 1.72a100.33 100.33 0 0 0 -39.52 39.2 74.84 74.84 0 0 0 -7.69 20.69 11.79 11.79 0 0 0 3.46 11 15.76 15.76 0 0 0 11.1 4.47h1a54.11 54.11 0 0 0 18.22-4c18.11-8 33-20.83 44.19-38.13a27.23 27.23 0 0 0 3.75-12.44c.19-2.32.6-3.51 2.54-4.48.81-.4 1.62-.87 2.28-1.26a26.2 26.2 0 0 1 3.06-1.6c16.78-6.88 34.53-14.1 52.76-21.46 1.65-.78 3.35-1.37 4.99-1.89zm-81.89 30c2 2.52 2.1 5.26.29 8.6-9.55 17.76-23 29-41 34.42a22 22 0 0 1 -3.31.66l-.4.07c-4 0-6.16-.36-7.12-1.29s-1-2.2-.78-4.74a35 35 0 0 1 3.3-11.37c7.82-16.29 19-27.59 34.22-34.54a16.58 16.58 0 0 1 6.64-1.29 16.94 16.94 0 0 1 2.29.15c1.71.23 4 .55 4.86 1.72a3.12 3.12 0 0 1 -.08 2.92c-.59 1.46.13 3.51 1.09 4.69z"/></g></svg>