<svg viewBox="0 0 735.3 287.69" xmlns="http://www.w3.org/2000/svg"><g fill="#fff" transform="translate(-224.78 -724.67)"><path d="m796.66 926.74c-9.27 2.17-18.5 4.68-27.87 6.42a65.88 65.88 0 0 1 -27.18-.32c-6.35-1.49-11.29-4.63-14.16-11.32-4.3 5.5-8.23 10.94-12.6 16a132.15 132.15 0 0 1 -10.94 10.88c-13.3 12.17-34.71 6.84-41.92-8.17-2-4.16-3.68-8.47-5.63-13-3.57 5.25-7 10.75-10.9 15.91-6.3 8.37-12.48 17-21.76 22.39a24.51 24.51 0 0 1 -10.17 3.18c-6.8.49-11.43-4-11.43-10.82a164.9 164.9 0 0 1 1.24-17.89c1.58-14.44 3.4-28.86 5-43.29.37-3.3.66-6.62.72-9.94 0-3.1-.48-6-3.75-8.26-1.61-1.13-1.77-4.32-2.75-7-8.56 4.91-17.56 10.06-26.56 15.25a3.37 3.37 0 0 0 -1.11 1.49c-8.24 18.19-22 32-36.38 45.16-15.46 14.17-32 27.11-51.44 35.58a41.94 41.94 0 0 1 -13.39 3.32c-9.91.72-15.61-9.26-10.28-19.06a158.43 158.43 0 0 1 16.69-24.71c15.91-19.37 34.31-36.25 54.13-51.54 4.63-3.58 9.48-6 15.56-5.22a11.46 11.46 0 0 0 5.45-.3c9.13-3.61 14.32 1.8 20 9l46.24-30.65c.7-.46 1.32-1.51 1.94-1.48 2.25.09 5.22-.25 6.55 1 2.28 2.15 1.28 5.07-1.35 6.73-5.15 3.24-10.45 6.26-16.23 9.69 1 .61 1.47.91 2 1.24 10.41 7 9.83 7.1 7 19.22a345.64 345.64 0 0 0 -6.27 38.16c-1.18 10.19-1.11 20.52-1.66 32.17 3.28-1.35 5.54-1.81 7.23-3 15.59-11.37 25-27.32 32.07-44.75 1.51-3.71 1.13-8.16 2.33-12.06 1.81-5.9 6.28-8.34 10.91-6.62 4.31 1.6 5.4 6.06 3.69 11.78-3.62 12.08-3.53 23.93 4.27 34.59 5 6.87 13.23 8.53 20.83 4.64 8.59-4.41 14.11-12 19.62-19.5 5.81-7.93 10.44-16.46 12.56-26.2a15.49 15.49 0 0 1 2-5 7.64 7.64 0 0 1 10-2.88c3.54 1.8 4.43 5.64 3.53 9.87a80.62 80.62 0 0 0 -2.25 18c0 2.14 3.39 5.27 5.86 6.15 9.29 3.3 18.93 2.76 28.51 1 1.79-.34 3.59-.62 5.37-1 10.8-2.1 18.91-5.67 22.37-18.52 3.82-14.21 13.37-25.92 26.64-33.63a38.63 38.63 0 0 1 27.01-4.53c9.21 1.65 13.51 10.51 8.12 18.62-4.14 6.22-9.5 12.29-15.68 16.35-11.3 7.42-23.52 13.48-35.53 19.76-5.49 2.88-6.67 6.76-2.29 11.36 4.87 5.13 11.34 5.94 17.89 5.38 24.7-2.14 44.63-15.23 64.14-28.82a347.93 347.93 0 0 0 52.45-45.36c.58-.6 1.07-1.58 1.75-1.73a14.41 14.41 0 0 1 1.6-.26 3.33 3.33 0 0 1 3.75 3.45 2.85 2.85 0 0 1 -.58 1.86 107.74 107.74 0 0 1 -12.53 11.49c-20.82 16-41.34 32.47-62.85 47.51-13.54 9.48-28.67 16.87-45.3 19.64a53.4 53.4 0 0 1 -18.23-.21c-10.24-1.94-14.71-7.43-16.05-17.2zm-272-29.64a27.16 27.16 0 0 0 -4.16 2.79c-10.67 10.43-21.91 20.38-31.66 31.62-6.15 7.1-10.38 16-14.81 24.42-2.2 4.19-.3 6.25 4.46 5.63a35.47 35.47 0 0 0 9.57-2.4c26-11.32 46.84-29.22 64.06-51.52 2.53-3.27 4.64-6.86 6.94-10.31a49.57 49.57 0 0 0 -10.52 4c-3.47 1.56-6.92 3.19-10.49 4.45q-12.05 4.16-13.42-8.68zm286.48 13.9c16.4-8.17 32.56-15.76 42-32.64-15.38-6.36-38.21 11.64-42 32.64zm-266.26-17.82 17.12-6.82c-5.08-2.36-12.13.17-17.12 6.82z"/><path d="m364 881.16c10.87-13.7 21.26-27.34 32.22-40.49 19.87-23.83 41-46.48 64.9-66.39a81.25 81.25 0 0 1 10.77-7.12c4.28-2.52 8.77-3.2 13.07 0 4.52 3.36 5.86 8.18 4.68 13.34-2.14 9.35-3.88 18.94-7.4 27.78-12.15 30.47-25 60.64-37.53 91-4 9.63-7.78 19.33-11.11 29.19-1.38 4.1-1.91 8.52 2.63 12.12 1.37 1.08 1.45 5.49.43 7.52-1.71 3.41-5.39 3.44-8.78 2-5.47-2.37-7.8-8.66-5.29-16.42a142.76 142.76 0 0 1 7.74-18.79c16.1-32.91 32.67-65.64 44-100.62 3.22-10 5.06-20.52 6.49-31 .93-6.73-3-9.44-8.73-6.1-8.69 5.08-17.36 10.57-24.9 17.18-37.36 32.7-68.64 70.78-94.7 112.86-10.58 17.07-17.84 36.2-26.43 54.47-1.82 3.87-4.06 6.71-8.59 5.87-3.92-.72-6.12-3.49-5.65-7.57a10.55 10.55 0 0 1 2.32-4.76c1.89-2.47 4.32-4.56 6.1-7.1 30.53-43.69 52-91.6 66.08-142.87 2.19-8 2.58-16.6 2.57-24.92 0-5.54-2.56-6.52-6.93-2.8-10.35 8.83-21 17.54-30.15 27.53-23.17 25.26-41.59 54.07-58.05 84-8.36 15.16-14 31.82-20.85 47.83q-12.45 29.26-24.81 58.59c-2 4.8-5.81 6.57-9.84 4.68s-5.38-6.47-3.2-10.61c14.61-27.75 29.34-55.43 43.82-83.24 22.4-43 38.16-88.44 48.89-135.64 1.59-7 2.85-14.32-1.06-22.08-1.7 3.19-3.66 6.28-5.05 9.61-2.08 5-5.61 7.23-10 5.8s-6.95-6.6-4.33-10.46a123.56 123.56 0 0 1 12.74-15.84c3.11-3.28 7.52-5.62 12.2-3.44 5.07 2.37 7 7.57 6.52 12.54a110.31 110.31 0 0 1 -4.44 23.32c-9.3 29-19.14 57.85-28.79 86.75a42 42 0 0 0 -1.91 6.51c7.25-10.91 14.23-22 21.81-32.69 15.43-21.74 31.48-43 51.79-60.6a24.39 24.39 0 0 1 1.84-1.69c4.24-2.89 8.31-6.55 14-3.18 4.11 2.44 7 9.59 5.39 15.56-4.79 17.37-9.36 34.84-15.19 51.87-5.59 16.21-12.64 31.97-19.29 48.5z"/><path d="m740.92 810.54c-.28-2.54-.8-4.36-.61-6.1.54-4.88 4.6-8 9-7.12s7.63 5.34 6.31 9.72c-2.71 9-5.72 17.86-9 26.65a6.63 6.63 0 0 1 -9 3.83c-3.53-1.46-4.78-5.5-3.1-9.73q3-7.54 5.84-15.13a14 14 0 0 0 .56-2.12z"/></g></svg>