<svg viewBox="0 0 813.44 591.89" xmlns="http://www.w3.org/2000/svg"><g fill="#000" transform="translate(-145.56 -539.8)"><path d="m740.08 732.67c-4.54 15-9.34 32.76-15.29 50.09-5.16 15-11 30.08-21.64 42.3-3.93 4.52-9.4 7.69-14.13 11.52-3.26 2.65-6.92 5-9.6 8.15-6.95 8.21-12.9 17.35-20.31 25.1-8.24 8.62-18 9.08-26 2.84-8.45-6.65-12.59-24.12-7-33.23 1.86-3 6.37-4.94 10.06-5.94 1.49-.41 5.37 2.74 5.72 4.7.4 2.24-1.25 5.92-3.2 7.29-5 3.56-6.32 8.18-2.92 15.15 2.83 5.78 8.46 8.48 13.42 4.93a75.47 75.47 0 0 0 14.67-14.45c3.46-4.34 5.7-9.67 8.27-14.67 2.42-4.69 5.92-8.31 11-9.41 11.56-2.47 18.68-10.33 24.62-19.58 12.36-19.21 19.29-40.69 25-62.54a442.23 442.23 0 0 0 9.47-45.22c1.9-12.63 1.85-25.55 2.77-38.33 1.05-14.77 2.49-29.51 3.27-44.3.62-11.73.33-23.51.82-35.25a13.09 13.09 0 0 1 3-7.7c.95-1 4.81-.85 6.2.25a8.44 8.44 0 0 1 2.68 6.32c-1.18 15.91-2.35 31.83-4.28 47.66-2.54 20.91-5.63 41.76-8.73 62.61-5.68 38.22-4.27 84.71-4.48 123.14-.05 9 0 18 0 28.6 5.22-4 9.53-6.69 13.15-10.12q27.69-26.3 55-53c2.16-2.12 3.57-5.16 4.88-8 10.17-22 21.23-43.6 35.82-63.13 1.29-1.74 2.42-4 4.19-4.85 2.1-1 5.44-1.62 7.07-.58s2.76 4.56 2.32 6.61a25.52 25.52 0 0 1 -4.47 9.34c-13.43 18.61-27.36 36.83-40.43 55.62-4.67 6.69-8 14.48-11 22.12-4.84 12.12-8.94 24.51-12.83 37.19 35.82-17.21 70.52-35.75 100-62.4-2.85-8.38 3.8-16.82 12.24-15.37 2.44.42 5.48 3.42 6.27 5.87 1.12 3.48.9 7.64-3.4 10a128.25 128.25 0 0 0 -13.6 7.88c-31.4 22.29-64.87 41-99.4 57.88-3 1.45-4.63 3.2-5.3 6.46q-8.98 42.78-17.98 85.6c-1.13 5.33-2.51 10.63-4.14 15.82-1.25 4-3.64 7.23-8.33 7.47-4.89.24-7.41-3.14-8.5-7.06-2.61-9.39-5.36-18.83-6.8-28.44-2.66-17.73-4.42-35.59-6.6-53.81q-14.22 5.67-28.42 11.36a22.56 22.56 0 0 1 -2.66 1.31c-3.56.88-6.72.39-8.37-3.36-1.5-3.37.41-6.34 4.08-8.36 10.87-6 21.66-12.09 32.27-18.51 1.47-.89 2.43-3.82 2.41-5.8-.13-22.32-.55-52.64-.79-75-.15-11.77-.07-23.58-.07-32.77zm51.25 109.33c-15.07 6.61-29.3 12.78-43.42 19.2-1.13.51-2.13 2.81-2.06 4.21 1 19.75 2.95 39.38 8.16 58.53 1.84 6.76 3.53 13.74 10.08 20.08 15.32-32.88 15.91-68.59 27.24-102.02zm-45.81 15c1.56-.52 3.13-.92 4.61-1.55 10.66-4.55 21.17-9.51 32-13.61 7.41-2.8 12.35-6.86 13.47-15.1.46-3.39 2.09-6.62 3.26-9.9q4.95-14 10-27.89c-1.82.66-2.75 2-3.94 3.16-18.23 17-36.25 34.27-54.9 50.8-4.79 4.24-6.02 8.09-4.5 14.09zm109.26-136.69-1.67-1.09c-11.23 12.64-19.78 27-27.3 42l1.71 1.1zm-112.58 138.22-1.12-8-16.08 12.52.48.86zm6.54-204.15 1.11.08q1.15-13.46 2.35-26.84l-1-.08q-1.2 13.46-2.46 26.84z"/><path d="m218.71 933.55c22 5.84 43.36 11.9 64.92 17.12 19.64 4.74 39.49 8.69 59.29 12.72a122.88 122.88 0 0 0 16.83 1.84c1.67.11 3.41-1.41 5.13-1.42 2.43 0 5.54-.1 7.11 1.27s2.27 4.9 1.48 6.61c-.88 1.9-3.84 2.94-6 4.06-.74.37-2 0-2.92-.28q-62.2-16.31-124.39-32.69c-7.35-1.94-14.63-4.15-22.52-6.4-1.71 4.84-3.44 9.41-4.93 14.06q-23.08 72.22-46 144.49c-1.1 3.47-3.7 7.56 1 10.71-2.1 7.27-4 14.6-6.57 21.71-.25.68-5.17.87-6.49-.31-1.57-1.41-2.9-5.23-2.07-6.83 12.1-23.33 16.46-49.24 24.81-73.8 12-35.33 23.67-70.77 35.47-106.17.51-1.54.85-3.13 1.19-4.36-13.11-5.1-26-9.88-38.67-15.16a44.74 44.74 0 0 1 -12.16-7.51c-5.15-4.52-6-10.89-1.68-16.06a100 100 0 0 1 16.72-16.25c24-17.85 48.47-35.17 72.63-52.86a17.27 17.27 0 0 0 5.61-7.04c21.73-54.64 44.58-108.76 71.68-161 4-7.63 7.57-15.45 12-22.8 1.2-2 4.84-3.62 7.23-3.46 1.82.12 4.82 3.38 4.78 5.18-.06 2.4-2 5.93-4.1 6.91-9.94 4.64-15.44 13.32-19.79 22.33q-23.15 48-45.08 96.5c-8.25 18.27-15.4 37.05-23.53 56.79 2.1-1.18 3.21-1.65 4.16-2.35 61.3-45.29 89.66-61.5 150.77-107.05 7.78-5.8 14-13.6 21.31-20.13 1.69-1.51 5-2.67 6.93-2.06s4.38 3.58 4.49 5.62-1.94 5.46-3.82 6.14c-17.66 6.45-32 18.19-46.82 29-52.82 38.56-72.25 48.66-125.39 86.78a53.39 53.39 0 0 0 -20.64 27.67c-9.86 28.69-20.67 57.07-31.09 85.57-.23.61-.38 1.22-.88 2.91zm-3.6-.91 37.22-101.47c-6.24 4.35-11.44 7.93-16.6 11.56-20.53 14.45-41.66 28.14-59.69 45.86-12.8 12.57-11.81 21.37 4.31 29.36 11.09 5.49 22.82 9.7 34.76 14.69z"/><path d="m489.29 855.73c4 .39 7.93.86 11.91 1.15 3.27.23 6.65-.18 9.79.53 2.47.56 5.61 1.85 6.69 3.8.94 1.68.18 5.53-1.27 7a8 8 0 0 1 -7.07 1.41c-23-9.24-43.46-5.28-61.71 11.08a92.23 92.23 0 0 0 -24.19 33.72 38.26 38.26 0 0 0 -3.08 11.43 11.42 11.42 0 0 0 2.66 7.9c.86.91 5.23-.13 6.88-1.57 4.45-3.9 9-8 12.23-12.92 6.06-9.28 11.3-19.1 16.65-28.83 8.86-16.1 17.49-20.95 35.64-18.71 9.82 1.21 19.57 3.13 29.28 5.09 4.65.93 6.55 4.07 5 7.36-1.82 3.93-5.05 3.8-8.44 2.32-9.9-4.32-20.29-5.62-31-5.8-9.39-.16-16.42 3.63-21.35 11.25-7.39 11.41-14.1 23.28-21.81 34.46-3.81 5.51-8.9 10.28-14 14.71-4.18 3.64-9.38 5.07-14.69 1.69-5.52-3.52-7-9.25-5.61-14.81a93.28 93.28 0 0 1 8.38-22.09c10.36-18.65 24.19-34.39 43.76-43.7 7.76-3.7 16.61-5.11 25-7.56z"/><path d="m556.4 855.35c3 8.86 2.08 12.27-2.55 13.69s-7.16-1-9-8.45c-1.84-7.66-.29-11.25 7.23-13.65a171.85 171.85 0 0 1 23.54-5.94c10.18-1.72 17.59 6.81 13.17 16-4.56 9.43-11 18-17.28 26.52-7 9.47-14.75 18.4-21.8 28.57a87.56 87.56 0 0 0 9.39-2.64c22.48-9 44.73-18.48 65.29-31.48.56-.35 1.14-.69 1.71-1 2.6-1.58 5.22-1.95 6.77 1.17s-.35 5-3 6.29c-2.1 1-4.23 1.9-6.34 2.87q-37.89 17.47-75.8 34.92a16.82 16.82 0 0 1 -5.17 1.58c-5.71.56-9.24-4.31-6.62-9.39 1.41-2.74 3.65-5.08 5.69-7.46 10.46-12.25 21.19-24.28 31.35-36.77 3.06-3.76 5-8.62 6.72-13.23 1.53-4-.39-6.63-4.4-6-6.3.98-12.4 2.83-18.9 4.4z"/><path d="m946 758.86c0-22.62.06-45.25-.07-67.88 0-2.92-1.23-5.82-1.59-8.77-.43-3.56.43-7.13 4.05-8.22a9.34 9.34 0 0 1 7.18 1.34c2.92 2.12 1.74 5.3 1 8.58-1.93 8.31-4 16.76-4.31 25.23-.88 21.44-1.18 42.92-1.07 64.38.05 11.44 1.32 22.88 2.27 34.3.23 2.79.27 5.39-2.9 5.79-3.66.48-4.3-2.54-4.3-5.32 0-13.32.18-26.63.27-39.95 0-3.16 0-6.32 0-9.48z"/><path d="m940.11 608.16c3.52.05 6.82 3.38 6.48 6.85-.37 3.78-2.62 6.08-6.45 6.36-3.52.26-6.74-3-6.75-6.58a6.81 6.81 0 0 1 6.72-6.63z"/></g></svg>