<?xml version="1.0" standalone="no"?>
<!DOCTYPE svg PUBLIC "-//W3C//DTD SVG 20010904//EN"
 "http://www.w3.org/TR/2001/REC-SVG-20010904/DTD/svg10.dtd">
<svg version="1.0" xmlns="http://www.w3.org/2000/svg"
 width="950.000000pt" height="435.000000pt" viewBox="0 0 950.000000 435.000000"
 preserveAspectRatio="xMidYMid meet">
<metadata>
Created by potrace 1.15, written by Peter Selinger 2001-2017
</metadata>
<g transform="translate(0.000000,435.000000) scale(0.100000,-0.100000)"
fill="#000000" stroke="none">
<path d="M2285 4319 c-490 -47 -1272 -211 -1655 -349 -324 -116 -541 -252
-601 -377 -37 -76 -23 -228 24 -257 26 -17 32 1 33 97 0 110 16 147 96 223 60
58 90 79 178 129 340 192 1055 373 1845 466 156 19 426 17 488 -4 108 -35 165
-107 153 -191 -17 -114 -117 -258 -307 -441 -402 -390 -1003 -749 -1640 -981
-83 -30 -155 -54 -160 -52 -5 2 79 134 187 293 226 336 311 475 388 635 58
121 107 282 110 361 2 93 -22 78 -81 -50 -232 -497 -253 -535 -558 -998 l-193
-291 -84 -28 c-47 -15 -93 -33 -104 -41 -29 -21 -3 -35 60 -31 44 2 55 0 51
-11 -3 -7 -42 -72 -87 -145 -109 -176 -182 -320 -257 -510 -76 -192 -101 -297
-82 -344 21 -51 37 -39 50 38 34 211 153 460 399 836 l106 162 76 22 c276 80
813 336 1189 568 617 379 1051 814 1051 1053 0 120 -94 192 -285 219 -82 11
-262 11 -390 -1z"/>
<path d="M8127 3499 c-54 -35 -124 -109 -239 -252 -105 -130 -171 -204 -448
-512 -283 -314 -354 -396 -444 -515 -152 -202 -215 -326 -216 -423 0 -52 3
-62 31 -89 27 -27 35 -30 73 -25 117 16 492 221 936 511 85 56 162 106 170
111 8 5 -35 -46 -95 -114 -188 -210 -304 -379 -321 -466 -14 -74 61 -100 207
-71 286 57 1079 411 1079 481 0 8 -4 15 -9 15 -12 0 -121 -46 -296 -125 -460
-206 -713 -293 -799 -271 -83 21 35 199 389 591 109 121 155 179 155 198 0 44
-248 -93 -879 -486 -344 -214 -448 -269 -501 -265 -31 3 -35 6 -38 35 -5 54
58 161 235 398 99 133 279 336 562 633 448 471 541 579 541 632 0 25 -15 40
-39 40 -4 0 -28 -14 -54 -31z"/>
<path d="M3119 3360 c-71 -12 -129 -46 -129 -74 0 -34 24 -50 62 -42 101 21
93 23 124 -35 37 -68 68 -88 110 -68 26 13 29 20 32 64 6 116 -73 177 -199
155z"/>
<path d="M6655 2717 c-64 -16 -133 -95 -195 -220 -53 -106 -55 -108 -118 -143
-277 -152 -619 -322 -842 -418 -378 -163 -451 -185 -491 -145 -36 36 -11 107
74 207 54 64 106 113 339 315 136 117 198 190 198 233 0 30 -14 37 -57 29 -26
-5 -58 -27 -117 -84 -92 -87 -177 -150 -426 -314 -436 -286 -833 -497 -936
-497 -107 0 49 192 401 491 94 80 209 183 258 230 73 71 87 89 87 115 0 26 -6
34 -30 44 -47 20 -81 -1 -160 -100 -38 -48 -129 -145 -201 -214 l-132 -125
-444 -197 c-244 -108 -446 -195 -448 -192 -12 12 432 623 504 693 54 52 53 95
-2 95 -6 0 -99 -89 -206 -198 -273 -276 -472 -431 -577 -447 -55 -9 -74 10
-74 73 1 80 55 174 211 363 91 111 119 156 112 177 -19 52 -146 -73 -325 -318
-23 -31 -60 -51 -304 -157 -441 -193 -582 -243 -680 -243 -56 0 -74 12 -74 49
0 55 114 241 272 444 67 86 89 107 185 170 143 95 206 155 201 193 -2 24 -8
29 -35 32 -53 5 -93 -22 -193 -133 -91 -100 -102 -109 -252 -195 -87 -50 -242
-135 -345 -188 -120 -62 -189 -103 -191 -115 -5 -25 36 -22 101 7 51 22 314
161 407 215 l45 26 -46 -55 c-134 -160 -228 -315 -243 -403 -22 -123 69 -164
256 -116 146 37 567 212 746 311 75 41 91 44 74 11 -21 -40 -33 -131 -23 -171
17 -60 42 -77 112 -75 106 2 209 62 428 250 43 36 41 33 -38 -82 -46 -66 -108
-157 -138 -202 l-56 -82 -141 -70 c-511 -251 -794 -533 -934 -932 -74 -210
-111 -538 -68 -608 29 -46 160 58 320 254 132 161 219 286 421 600 81 127 217
337 303 467 l157 238 120 54 c66 29 185 81 265 114 80 33 205 87 279 121 74
34 136 61 139 61 4 0 -10 -17 -29 -37 -95 -101 -138 -181 -139 -255 0 -66 23
-88 90 -88 109 0 277 81 712 343 153 92 280 167 284 167 3 0 -12 -22 -35 -48
-60 -73 -130 -190 -147 -249 -38 -129 49 -152 287 -77 163 51 562 231 772 348
154 85 449 238 452 234 1 -2 -19 -63 -46 -135 -108 -301 -205 -437 -342 -478
-97 -29 -167 -17 -363 60 -63 26 -125 45 -137 43 -59 -9 231 -152 373 -184 61
-14 86 -15 137 -6 204 34 315 186 424 575 l52 187 66 42 c235 147 317 250 245
307 -29 23 -66 25 -129 8z m-3512 -1234 c-107 -168 -493 -745 -573 -857 -120
-170 -223 -296 -305 -376 l-66 -65 5 50 c3 28 8 84 11 125 35 422 238 741 635
995 62 40 319 185 327 185 2 0 -14 -26 -34 -57z"/>
</g>
</svg>
